<svg width="22" height="22" viewBox="0 0 22 22" fill="none" xmlns="http://www.w3.org/2000/svg">
<path d="M7.57806 13.4567C7.40939 13.4567 7.29573 13.4732 7.23706 13.4897V14.5695C7.30673 14.586 7.39381 14.5906 7.51389 14.5906C7.95298 14.5906 8.22339 14.3687 8.22339 13.9938C8.22339 13.6583 7.99056 13.4567 7.57806 13.4567ZM10.7745 13.4677C10.5911 13.4677 10.472 13.4842 10.4014 13.5007V15.8932C10.472 15.9097 10.5856 15.9097 10.6883 15.9097C11.4372 15.9152 11.9249 15.5027 11.9249 14.63C11.9304 13.8692 11.4858 13.4677 10.7745 13.4677Z" fill="#EC2024"/>
<path d="M12.8333 1.83337H5.49996C5.01373 1.83337 4.54741 2.02653 4.2036 2.37034C3.85978 2.71416 3.66663 3.18048 3.66663 3.66671V18.3334C3.66663 18.8196 3.85978 19.2859 4.2036 19.6297C4.54741 19.9736 5.01373 20.1667 5.49996 20.1667H16.5C16.9862 20.1667 17.4525 19.9736 17.7963 19.6297C18.1401 19.2859 18.3333 18.8196 18.3333 18.3334V7.33337L12.8333 1.83337ZM8.70646 14.8409C8.42321 15.1067 8.00521 15.2259 7.51846 15.2259C7.42406 15.2277 7.32967 15.2221 7.23613 15.2094V16.5165H6.41663V12.9085C6.78648 12.8535 7.16016 12.8284 7.53404 12.8334C8.04463 12.8334 8.40763 12.9305 8.65238 13.1258C8.88521 13.311 9.04288 13.6144 9.04288 13.9719C9.04196 14.3312 8.92279 14.6346 8.70646 14.8409ZM12.1962 16.083C11.8112 16.4029 11.2255 16.555 10.5095 16.555C10.0805 16.555 9.77713 16.5275 9.57088 16.5V12.9095C9.94086 12.8556 10.3144 12.8302 10.6883 12.8334C11.3822 12.8334 11.8332 12.958 12.1852 13.2239C12.5656 13.5062 12.804 13.9563 12.804 14.6025C12.804 15.302 12.5482 15.785 12.1962 16.083ZM15.5833 13.5392H14.179V14.3743H15.4916V15.0471H14.179V16.5175H13.3485V12.8609H15.5833V13.5392ZM12.8333 8.25004H11.9166V3.66671L16.5 8.25004H12.8333Z" fill="#EC2024"/>
</svg>
