<svg width="168" height="275" viewBox="0 0 168 275" fill="none" xmlns="http://www.w3.org/2000/svg">
<path d="M-5.4264 56.1375C-5.60372 55.6604 -5.77417 55.18 -5.93817 54.6962C-6.01579 54.4667 -5.89292 54.2178 -5.66342 54.1402C-5.43391 54.0626 -5.18222 54.1907 -5.10761 54.4146C-4.94539 54.8936 -4.77561 55.3735 -4.6009 55.8411C-4.17105 56.9975 -3.69483 58.1484 -3.18539 59.2621C-3.08457 59.4835 -3.18147 59.7425 -3.40146 59.8433C-3.62145 59.9441 -3.88187 59.8472 -3.98279 59.6269C-4.50121 58.4939 -4.98576 57.3229 -5.42299 56.1467C-5.42417 56.1435 -5.42522 56.1407 -5.4264 56.1375ZM-7.36765 49.6478C-7.37415 49.6303 -7.37961 49.612 -7.38402 49.5928C-7.77782 47.8846 -8.09285 46.129 -8.32118 44.3742C-8.3526 44.1338 -8.18326 43.9139 -7.94277 43.8829C-7.70283 43.8516 -7.48298 44.0219 -7.45161 44.2609C-7.22692 45.9876 -6.91672 47.7156 -6.52964 49.396C-6.47542 49.632 -6.62277 49.8673 -6.85855 49.9219C-7.07572 49.9719 -7.29214 49.851 -7.36765 49.6478ZM-1.55964 64.2579C-1.63205 64.0631 -1.55695 63.8379 -1.37188 63.7284C-1.16339 63.6052 -0.894399 63.674 -0.771207 63.8824C0.11384 65.3773 1.0865 66.8365 2.11998 68.2182C2.2659 68.4124 2.22549 68.6871 2.03143 68.8321C1.83737 68.9771 1.56295 68.9375 1.41798 68.7434C0.365496 67.3361 -0.624962 65.851 -1.52556 64.3289C-1.53949 64.306 -1.55063 64.2821 -1.55964 64.2579ZM-8.72917 39.228C-8.74513 39.1851 -8.75464 39.1388 -8.75628 39.0906C-8.81789 37.3412 -8.79933 35.558 -8.70065 33.7907C-8.68691 33.5489 -8.48014 33.3639 -8.23853 33.3773C-7.99679 33.391 -7.81176 33.5978 -7.82512 33.8394C-7.92213 35.5808 -7.94082 37.3369 -7.87999 39.0599C-7.87145 39.3019 -8.06071 39.5048 -8.30262 39.5138C-8.49643 39.5207 -8.66504 39.4006 -8.72917 39.228ZM4.73242 72.6671C4.67258 72.5061 4.71085 72.3182 4.84413 72.1935C5.02112 72.0282 5.29842 72.0378 5.46375 72.2148C6.64693 73.4807 7.91244 74.693 9.22554 75.818C9.40953 75.9758 9.43051 76.2525 9.27332 76.4358C9.11588 76.6197 8.83884 76.6412 8.65499 76.4838C7.31743 75.3381 6.02808 74.103 4.82302 72.8135C4.78235 72.7698 4.75193 72.7196 4.73242 72.6671ZM16.3607 103.002C16.2793 102.783 16.3848 102.537 16.6026 102.446C16.8262 102.352 17.083 102.458 17.1765 102.681C17.8274 104.236 18.5848 105.82 19.4279 107.387C19.5432 107.6 19.4629 107.866 19.2496 107.981C19.0366 108.096 18.7708 108.016 18.6557 107.802C17.7991 106.21 17.0293 104.6 16.3673 103.019C16.365 103.014 16.3628 103.008 16.3607 103.002ZM14.6028 98.0468C14.5991 98.0369 14.5957 98.0264 14.5926 98.0157C14.0905 96.2876 13.7015 94.5423 13.4369 92.8285C13.4 92.5893 13.5638 92.3656 13.8033 92.3281C14.0428 92.2907 14.2663 92.4538 14.3037 92.6946C14.5627 94.371 14.9432 96.0788 15.4351 97.7709C15.5025 98.0033 15.3689 98.2466 15.1366 98.3144C14.9142 98.3794 14.6822 98.2603 14.6028 98.0468ZM21.3167 112.27C21.2466 112.081 21.314 111.863 21.4894 111.75C21.6923 111.618 21.9641 111.676 22.0957 111.879C23.039 113.333 24.0482 114.774 25.0953 116.162C25.2411 116.356 25.203 116.63 25.0096 116.776C24.8164 116.922 24.5414 116.883 24.3954 116.69C23.3355 115.286 22.3143 113.828 21.3602 112.356C21.3422 112.329 21.3278 112.3 21.3167 112.27ZM13.0225 87.6762C13.0054 87.6301 12.9959 87.5802 12.9952 87.5285C12.9748 85.7561 13.0857 83.9693 13.3246 82.2177C13.3572 81.978 13.5784 81.8098 13.8181 81.8424C14.0579 81.8754 14.2264 82.096 14.1934 82.3359C13.9604 84.045 13.852 85.7888 13.8718 87.5179C13.8745 87.7603 13.6804 87.9587 13.4384 87.9614C13.2481 87.9642 13.0852 87.8448 13.0225 87.6762ZM27.6486 120.662C27.5869 120.496 27.6301 120.302 27.7716 120.179C27.9541 120.02 28.2313 120.039 28.3901 120.221C29.527 121.526 30.7279 122.811 31.9597 124.042C32.1306 124.213 32.1315 124.49 31.96 124.662C31.7888 124.833 31.5111 124.833 31.3398 124.662C30.0934 123.417 28.8789 122.117 27.7287 120.797C27.6931 120.756 27.6666 120.711 27.6486 120.662ZM12.7054 79.4978C12.6576 79.369 12.6704 79.2199 12.7536 79.098C12.8901 78.898 13.1626 78.846 13.3629 78.982C14.1526 79.5191 14.9696 80.0398 15.7913 80.528C16.4656 80.9289 17.1499 81.3116 17.8249 81.6656C18.0394 81.7777 18.1223 82.0433 18.0097 82.2575C17.897 82.4718 17.6324 82.5548 17.4177 82.4423C16.7288 82.0812 16.0307 81.6905 15.3429 81.2815C14.506 80.784 13.6738 80.2541 12.8694 79.7066C12.7915 79.6541 12.736 79.5801 12.7054 79.4978ZM14.4646 77.2934C14.4323 77.2067 14.4271 77.1087 14.4563 77.0132C14.9609 75.3579 15.6092 73.689 16.3832 72.0525C16.487 71.8338 16.7481 71.7404 16.9672 71.844C17.1858 71.9478 17.2797 72.2088 17.176 72.4279C16.4198 74.0256 15.7874 75.6547 15.2953 77.2692C15.2249 77.5008 14.9799 77.6316 14.7481 77.5608C14.6118 77.5191 14.5107 77.4174 14.4646 77.2934ZM35.084 128.093C35.0297 127.947 35.0548 127.777 35.1643 127.651C35.3235 127.469 35.6003 127.45 35.7828 127.609C37.0866 128.745 38.4507 129.856 39.8372 130.911C40.0298 131.058 40.0672 131.333 39.9204 131.526C39.7739 131.718 39.4987 131.756 39.3063 131.609C37.9043 130.542 36.525 129.419 35.2069 128.27C35.1499 128.22 35.1086 128.159 35.084 128.093ZM22.0151 84.3399C21.9801 84.2457 21.9771 84.1391 22.0141 84.0376C22.0969 83.81 22.3482 83.6926 22.5758 83.7754C24.2348 84.3786 25.9153 84.8489 27.5708 85.1724C27.8084 85.2189 27.9632 85.4491 27.9171 85.6866C27.8706 85.9242 27.6404 86.079 27.4027 86.0325C25.7025 85.7003 23.9776 85.218 22.2763 84.5994C22.1506 84.5534 22.0583 84.456 22.0151 84.3399ZM43.4468 134.459C43.3996 134.332 43.4115 134.185 43.492 134.063C43.6261 133.862 43.8979 133.807 44.0996 133.94C45.5402 134.896 47.0369 135.821 48.5485 136.69C48.7583 136.811 48.831 137.079 48.71 137.289C48.5895 137.499 48.3212 137.571 48.1113 137.45C46.5838 136.571 45.0712 135.636 43.6153 134.671C43.5353 134.618 43.4779 134.543 43.4468 134.459ZM18.931 67.8007C18.8844 67.6755 18.8956 67.5302 18.9737 67.4093C19.9375 65.9208 21.0052 64.4855 22.1477 63.1429C22.3044 62.9584 22.5812 62.9361 22.7658 63.0932C22.9503 63.2499 22.9726 63.5267 22.8155 63.7113C21.6976 65.025 20.6528 66.4296 19.7098 67.8863C19.5781 68.0896 19.307 68.1478 19.1034 68.0163C19.0209 67.9623 18.9627 67.8862 18.931 67.8007ZM32.2998 86.3153C32.2812 86.2652 32.2714 86.2109 32.2726 86.1543C32.277 85.912 32.477 85.7196 32.719 85.7242C34.4424 85.7559 36.1781 85.6297 37.8783 85.3493C38.1169 85.3095 38.3435 85.4723 38.3822 85.7104C38.4218 85.9495 38.26 86.1752 38.0211 86.2142C36.2686 86.5037 34.4792 86.634 32.7029 86.6011C32.5173 86.5973 32.3607 86.479 32.2998 86.3153ZM52.5561 139.7C52.5154 139.591 52.5183 139.466 52.574 139.353C52.6816 139.136 52.9445 139.047 53.1618 139.155C54.7108 139.922 56.3111 140.655 57.9175 141.334C58.1407 141.427 58.2451 141.685 58.1509 141.908C58.0569 142.131 57.7995 142.236 57.5766 142.141C55.9538 141.456 54.3375 140.716 52.7725 139.941C52.6682 139.889 52.5937 139.802 52.5561 139.7ZM25.7415 59.8149C25.6803 59.6503 25.7217 59.4585 25.8606 59.3344C27.2091 58.131 28.6307 57.0415 30.0854 56.0971C30.2884 55.9652 30.5601 56.023 30.6921 56.226C30.8242 56.428 30.7663 56.7006 30.5632 56.8322C29.1455 57.7533 27.7597 58.8149 26.4446 59.9888C26.2638 60.1501 25.9868 60.134 25.8257 59.9537C25.7875 59.9118 25.76 59.8646 25.7415 59.8149ZM62.2381 143.79C62.2035 143.697 62.2002 143.592 62.2359 143.491C62.3167 143.263 62.5672 143.143 62.7955 143.224C64.428 143.802 66.1047 144.341 67.779 144.828C68.0112 144.895 68.1453 145.138 68.0777 145.371C68.0102 145.603 67.7668 145.737 67.5345 145.67C65.8441 145.179 64.1514 144.634 62.5027 144.051C62.3752 144.006 62.2817 143.907 62.2381 143.79ZM42.6081 84.5576C42.524 84.3314 42.6386 84.0798 42.8644 83.9945C44.467 83.3897 46.0367 82.634 47.5304 81.7471C47.7387 81.6235 48.0077 81.6922 48.1312 81.9002C48.2551 82.1093 48.186 82.3775 47.978 82.501C46.4405 83.4136 44.8242 84.1922 43.1738 84.8147C42.9472 84.9003 42.6943 84.7858 42.6087 84.5592L42.6081 84.5576ZM34.5464 54.1417C34.4653 53.9235 34.5699 53.6778 34.7863 53.5856C35.174 53.4211 35.5689 53.2639 35.9601 53.1185C36.6188 52.8737 37.2894 52.6534 37.9539 52.4643C38.593 52.2824 39.2468 52.1303 39.897 52.0135C40.1353 51.9706 40.3635 52.1293 40.4063 52.3672C40.4492 52.6055 40.2909 52.8335 40.0526 52.8764C39.431 52.9885 38.8061 53.1334 38.1949 53.3077C37.5526 53.4908 36.9037 53.7035 36.2665 53.9403C35.8844 54.0823 35.5053 54.2333 35.1297 54.3928C34.907 54.4873 34.6493 54.3831 34.5547 54.1604C34.5512 54.1545 34.5488 54.1481 34.5464 54.1417ZM72.3372 146.724C72.3084 146.647 72.3011 146.56 72.321 146.474C72.3753 146.238 72.6106 146.091 72.8466 146.145C74.5342 146.533 76.2609 146.88 77.9789 147.177C78.2177 147.218 78.3774 147.446 78.3365 147.684C78.2953 147.923 78.0685 148.083 77.8301 148.042C76.0963 147.742 74.3535 147.392 72.6505 147C72.5004 146.965 72.3868 146.858 72.3372 146.724ZM81.6643 161.959C81.366 161.156 81.0875 160.35 80.8365 159.563C80.7631 159.332 80.8907 159.085 81.1213 159.012C81.3518 158.938 81.5993 159.067 81.6723 159.296C82.1779 160.883 82.7899 162.523 83.4965 164.186C83.5931 164.409 83.4877 164.666 83.2647 164.761C83.0419 164.856 82.7844 164.752 82.6898 164.529C82.3222 163.665 81.9773 162.801 81.6643 161.959ZM84.9201 169.271C84.8437 169.065 84.9317 168.831 85.1315 168.728C85.347 168.617 85.6112 168.702 85.7217 168.918C86.4673 170.374 87.2895 171.877 88.2346 173.516C88.3555 173.725 88.2838 173.994 88.074 174.115C87.8642 174.236 87.5959 174.164 87.475 173.954C86.5225 172.303 85.6937 170.787 84.941 169.318C84.9333 169.302 84.9261 169.286 84.9201 169.271ZM79.5285 154.492C79.5203 154.469 79.5136 154.447 79.5093 154.423C79.163 152.66 78.9319 150.887 78.823 149.153C78.8078 148.911 78.9915 148.703 79.233 148.688C79.4748 148.672 79.6832 148.857 79.698 149.097C79.8046 150.794 80.0309 152.529 80.37 154.254C80.4166 154.491 80.2621 154.722 80.0243 154.769C79.81 154.811 79.6021 154.69 79.5285 154.492ZM51.6063 79.2036C51.5446 79.0374 51.5879 78.8435 51.7294 78.7203C53.0758 77.548 54.2613 76.2797 55.2525 74.9512C55.3971 74.7572 55.6721 74.717 55.8663 74.862C56.0603 75.0066 56.1002 75.2818 55.9554 75.4754C54.9268 76.854 53.6987 78.1684 52.3054 79.3813C52.1229 79.5405 51.8457 79.5214 51.6867 79.3384C51.6513 79.2977 51.6243 79.2521 51.6063 79.2036ZM90.1524 178.398C90.0814 178.207 90.1518 177.986 90.3313 177.873C90.5365 177.745 90.8073 177.808 90.9352 178.013C91.8575 179.49 92.8185 180.97 93.7916 182.413C93.9263 182.613 93.8737 182.886 93.6731 183.022C93.4722 183.157 93.1996 183.104 93.0644 182.904C92.0859 181.452 91.1193 179.963 90.1913 178.478C90.1756 178.452 90.1625 178.425 90.1524 178.398ZM44.8024 52.3868C44.7799 52.3264 44.7704 52.2594 44.7774 52.1907C44.8014 51.9497 45.0165 51.7738 45.2573 51.7983C47.0721 51.9797 48.8252 52.4186 50.4673 53.1031C50.6911 53.1964 50.7965 53.4531 50.7035 53.6763C50.6104 53.8996 50.3535 54.0055 50.1302 53.9125C48.5676 53.2618 46.8989 52.8441 45.17 52.671C44.9979 52.6535 44.859 52.5391 44.8024 52.3868ZM78.8847 144.021C78.8631 143.963 78.8534 143.899 78.8587 143.833C78.9975 142.11 79.282 140.341 79.7044 138.576C79.7606 138.34 79.9972 138.195 80.2331 138.251C80.4685 138.308 80.614 138.545 80.5574 138.78C80.1456 140.502 79.8679 142.226 79.7332 143.903C79.7138 144.144 79.5024 144.324 79.2609 144.305C79.0851 144.291 78.9422 144.176 78.8847 144.021ZM96.0334 187.121C95.9664 186.941 96.024 186.732 96.1869 186.614C96.3828 186.472 96.6569 186.515 96.7994 186.711C97.8209 188.118 98.8822 189.528 99.9548 190.902C100.104 191.092 100.07 191.369 99.879 191.517C99.6879 191.667 99.4123 191.632 99.2635 191.442C98.1847 190.059 97.1172 188.641 96.0901 187.227C96.066 187.193 96.047 187.158 96.0334 187.121ZM82.7001 148.505C82.6771 148.443 82.6677 148.375 82.6755 148.305C82.7019 148.064 82.9183 147.891 83.1593 147.917C84.953 148.113 86.7063 148.236 88.3699 148.281C88.6118 148.288 88.8028 148.489 88.7964 148.731C88.7897 148.973 88.5882 149.164 88.3464 149.158C86.6589 149.112 84.8815 148.987 83.0641 148.788C82.8928 148.77 82.7561 148.656 82.7001 148.505ZM102.506 195.416C102.443 195.247 102.489 195.049 102.636 194.927C102.821 194.771 103.098 194.796 103.253 194.981C104.37 196.314 105.526 197.647 106.691 198.943C106.853 199.124 106.838 199.401 106.657 199.563C106.477 199.724 106.2 199.71 106.038 199.529C104.867 198.225 103.704 196.885 102.581 195.544C102.548 195.505 102.523 195.461 102.506 195.416ZM57.7528 70.7886C57.7169 70.692 57.7147 70.5824 57.7545 70.4789C57.8126 70.3275 57.8685 70.1759 57.9217 70.0231C58.4524 68.5065 58.711 66.9856 58.6907 65.5032C58.6872 65.2611 58.881 65.0619 59.1232 65.0588C59.3653 65.0552 59.5644 65.2499 59.5677 65.4912C59.5896 67.0766 59.3145 68.6991 58.7497 70.313C58.6936 70.4737 58.6347 70.634 58.5736 70.7934C58.4866 71.0194 58.2332 71.1326 58.0072 71.0456C57.8843 70.9985 57.7952 70.9027 57.7528 70.7886ZM81.2983 133.815C81.2621 133.718 81.2603 133.607 81.3012 133.503C81.9458 131.858 82.7083 130.239 83.5673 128.693C83.685 128.481 83.9517 128.405 84.1636 128.522C84.3752 128.64 84.4517 128.907 84.3341 129.119C83.4936 130.631 82.7482 132.214 82.1178 133.823C82.0297 134.048 81.775 134.159 81.5495 134.071C81.4286 134.023 81.3403 133.928 81.2983 133.815ZM54.3365 56.4243C54.2818 56.2772 54.308 56.1055 54.4193 55.98C54.5799 55.7986 54.8571 55.7824 55.0381 55.9431C56.4428 57.1892 57.5469 58.6307 58.3207 60.228C58.4249 60.4449 58.3354 60.708 58.1172 60.8136C57.8993 60.919 57.637 60.8278 57.5316 60.61C56.8086 59.1178 55.7739 57.7681 54.4562 56.5992C54.4007 56.5497 54.3605 56.4891 54.3365 56.4243ZM109.536 203.242C109.477 203.083 109.513 202.898 109.643 202.773C109.817 202.605 110.095 202.61 110.263 202.785C111.469 204.038 112.714 205.289 113.964 206.503C114.138 206.671 114.141 206.949 113.973 207.123C113.805 207.296 113.527 207.3 113.353 207.132C112.096 205.911 110.843 204.654 109.631 203.394C109.588 203.348 109.556 203.297 109.536 203.242ZM93.204 148.757C93.19 148.72 93.1808 148.679 93.1778 148.637C93.16 148.396 93.341 148.185 93.5823 148.167C95.349 148.035 97.0845 147.802 98.7401 147.475C98.9777 147.428 99.2084 147.583 99.2552 147.82C99.3023 148.058 99.1474 148.288 98.9101 148.335C97.22 148.67 95.4495 148.907 93.6476 149.041C93.4481 149.056 93.2702 148.935 93.204 148.757ZM117.084 210.569C117.029 210.42 117.056 210.247 117.17 210.121C117.333 209.942 117.61 209.928 117.79 210.091C119.079 211.26 120.406 212.423 121.735 213.548C121.92 213.704 121.942 213.981 121.786 214.166C121.63 214.351 121.353 214.374 121.168 214.217C119.832 213.085 118.497 211.916 117.201 210.741C117.147 210.692 117.108 210.633 117.084 210.569ZM86.4004 124.645C86.3501 124.51 86.3677 124.352 86.4605 124.228C87.5369 122.794 88.7119 121.443 89.9531 120.213C90.1251 120.043 90.4028 120.044 90.5732 120.216C90.7433 120.388 90.7425 120.665 90.5706 120.836C89.3595 122.036 88.2126 123.355 87.162 124.755C87.0169 124.949 86.7419 124.988 86.548 124.842C86.4783 124.79 86.4286 124.721 86.4004 124.645ZM125.111 217.368C125.06 217.229 125.08 217.067 125.178 216.943C125.328 216.753 125.604 216.721 125.794 216.871C127.159 217.951 128.561 219.022 129.962 220.056C130.157 220.2 130.198 220.475 130.054 220.669C129.91 220.864 129.636 220.905 129.441 220.762C128.033 219.722 126.623 218.644 125.25 217.559C125.185 217.507 125.138 217.441 125.111 217.368ZM103.491 146.697C103.49 146.694 103.488 146.69 103.487 146.687C103.408 146.458 103.53 146.209 103.759 146.13C104.048 146.031 104.337 145.927 104.625 145.821C105.327 145.56 106.028 145.274 106.708 144.972C107.314 144.702 107.926 144.405 108.528 144.086C108.742 143.973 109.007 144.055 109.12 144.269C109.234 144.482 109.152 144.748 108.938 144.861C108.319 145.189 107.688 145.496 107.064 145.773C106.367 146.083 105.649 146.375 104.93 146.643C104.635 146.752 104.339 146.858 104.043 146.959C103.819 147.037 103.573 146.92 103.491 146.697ZM93.861 117.28C93.7938 117.099 93.8522 116.888 94.0166 116.771C95.1024 115.993 96.2374 115.282 97.3904 114.661C97.7872 114.447 98.1962 114.241 98.6061 114.05C98.8255 113.947 99.0863 114.042 99.1889 114.261C99.2916 114.483 99.1964 114.742 98.977 114.844C98.5826 115.028 98.1888 115.226 97.8067 115.433C96.6861 116.037 95.5831 116.727 94.5273 117.484C94.3304 117.625 94.0566 117.579 93.9155 117.383C93.8927 117.35 93.8743 117.315 93.861 117.28ZM133.573 223.615C133.525 223.485 133.539 223.336 133.623 223.213C133.76 223.014 134.033 222.963 134.233 223.101C135.664 224.086 137.134 225.062 138.602 226.003C138.806 226.134 138.865 226.405 138.735 226.609C138.604 226.812 138.333 226.872 138.129 226.741C136.653 225.795 135.174 224.813 133.736 223.823C133.659 223.77 133.604 223.696 133.573 223.615ZM142.428 229.291C142.384 229.171 142.392 229.032 142.463 228.913C142.587 228.705 142.856 228.637 143.064 228.761C144.555 229.65 146.086 230.529 147.612 231.373C147.824 231.491 147.901 231.757 147.784 231.969C147.667 232.181 147.4 232.258 147.188 232.141C145.653 231.291 144.114 230.408 142.615 229.515C142.526 229.461 142.462 229.381 142.428 229.291ZM112.75 141.792C112.685 141.616 112.738 141.41 112.897 141.29C114.287 140.236 115.59 139.074 116.77 137.838C116.938 137.662 117.215 137.656 117.39 137.823C117.565 137.99 117.572 138.268 117.405 138.443C116.193 139.713 114.854 140.906 113.426 141.989C113.233 142.135 112.958 142.097 112.812 141.905C112.786 141.87 112.765 141.832 112.75 141.792ZM103.358 112.927C103.351 112.908 103.344 112.887 103.34 112.866C103.289 112.63 103.44 112.396 103.676 112.345C105.443 111.965 107.234 111.787 109.001 111.817C109.243 111.821 109.436 112.02 109.432 112.262C109.428 112.505 109.228 112.697 108.986 112.693C107.286 112.664 105.562 112.835 103.861 113.203C103.645 113.249 103.432 113.128 103.358 112.927ZM151.632 234.381C151.591 234.269 151.594 234.142 151.652 234.028C151.763 233.812 152.027 233.727 152.243 233.838C153.63 234.547 155.048 235.248 156.459 235.921C156.678 236.024 156.771 236.287 156.667 236.505C156.562 236.723 156.301 236.817 156.082 236.712C154.663 236.036 153.237 235.332 151.843 234.618C151.742 234.566 151.669 234.48 151.632 234.381ZM119.954 134.185C119.908 134.059 119.919 133.914 119.998 133.792C120.992 132.272 121.767 130.724 122.302 129.194C122.382 128.965 122.632 128.845 122.861 128.925C123.09 129.005 123.21 129.255 123.13 129.484C122.571 131.081 121.764 132.692 120.732 134.272C120.6 134.474 120.328 134.532 120.125 134.399C120.044 134.346 119.986 134.271 119.954 134.185ZM113.776 113.157C113.744 113.073 113.738 112.978 113.765 112.884C113.831 112.651 114.075 112.517 114.307 112.583C116.141 113.108 117.779 113.88 119.178 114.879C119.374 115.02 119.42 115.294 119.28 115.491C119.139 115.688 118.865 115.733 118.668 115.593C117.351 114.652 115.803 113.924 114.066 113.427C113.927 113.386 113.823 113.284 113.776 113.157ZM123.213 124.338C123.196 124.291 123.186 124.241 123.186 124.189C123.184 124.039 123.18 123.889 123.174 123.74C123.104 122.152 122.707 120.66 122.003 119.33C121.89 119.118 121.971 118.851 122.185 118.737C122.399 118.624 122.664 118.706 122.778 118.92C123.543 120.364 123.974 121.984 124.05 123.701C124.057 123.861 124.061 124.021 124.063 124.182C124.064 124.424 123.87 124.622 123.628 124.624C123.438 124.625 123.275 124.506 123.213 124.338Z" fill="#010F40"/>
<path d="M155.933 242.611L161.822 231.874L167.55 239.976L155.933 242.611Z" fill="#010F40"/>
</svg>
